REM DIRINDEX 1\2\6,1\2\7,1\2\8,1\2\9,1\3\10,1\3\11,1\4\12,1\4\13,1\4\14,1\5\15,1\5\16,1\5\17
REM DIRNAME cjc020,folder01,folder02,folder03,folder04,folder05,folder06,folder07,folder08,folder09,folder10,folder11,folder12,folder13,folder14,folder15,folder16
TITLE ""
FILE "1900_3_012 sec02_0180_0200.mp3" MP3
  TRACK 01 AUDIO
    TITLE "0:"
    INDEX 01 00:00:00
  TRACK 02 AUDIO
    TITLE "17:cjc020_6327"
    INDEX 01 00:00:19
  TRACK 03 AUDIO
    TITLE "0:"
    INDEX 01 00:01:36
  TRACK 04 AUDIO
    TITLE "16:cjc020_6328"
    INDEX 01 00:01:40
  TRACK 05 AUDIO
    TITLE "0:"
    INDEX 01 00:03:02
  TRACK 06 AUDIO
    TITLE "17:cjc020_6329"
    INDEX 01 00:03:64
  TRACK 07 AUDIO
    TITLE "0:"
    INDEX 01 00:05:05
  TRACK 08 AUDIO
    TITLE "16:cjc020_6330"
    INDEX 01 00:05:16
  TRACK 09 AUDIO
    TITLE "0:"
    INDEX 01 00:06:43
  TRACK 10 AUDIO
    TITLE "17:cjc020_6331"
    INDEX 01 00:07:27
  TRACK 11 AUDIO
    TITLE "0:"
    INDEX 01 00:08:36
  TRACK 12 AUDIO
    TITLE "16:cjc020_6332"
    INDEX 01 00:08:40
  TRACK 13 AUDIO
    TITLE "0:"
    INDEX 01 00:09:49
  TRACK 14 AUDIO
    TITLE "17:cjc020_6333"
    INDEX 01 00:10:31
  TRACK 15 AUDIO
    TITLE "0:"
    INDEX 01 00:11:44
  TRACK 16 AUDIO
    TITLE "16:cjc020_6334"
    INDEX 01 00:11:50
  TRACK 17 AUDIO
    TITLE "0:"
    INDEX 01 00:12:46
  TRACK 18 AUDIO
    TITLE "17:cjc020_6335"
    INDEX 01 00:13:30
  TRACK 19 AUDIO
    TITLE "0:"
    INDEX 01 00:14:66
  TRACK 20 AUDIO
    TITLE "16:cjc020_6336"
    INDEX 01 00:14:70
  TRACK 21 AUDIO
    TITLE "0:"
    INDEX 01 00:16:10
  TRACK 22 AUDIO
    TITLE "17:cjc020_6337"
    INDEX 01 00:16:71
  TRACK 23 AUDIO
    TITLE "0:"
    INDEX 01 00:18:15
  TRACK 24 AUDIO
    TITLE "16:cjc020_6338"
    INDEX 01 00:18:25
  TRACK 25 AUDIO
    TITLE "0:"
    INDEX 01 00:19:38
  TRACK 26 AUDIO
    TITLE "17:cjc020_6339"
    INDEX 01 00:20:24
  TRACK 27 AUDIO
    TITLE "0:"
    INDEX 01 00:22:58
  TRACK 28 AUDIO
    TITLE "16:cjc020_6340"
    INDEX 01 00:22:62
  TRACK 29 AUDIO
    TITLE "0:"
    INDEX 01 00:24:04
  TRACK 30 AUDIO
    TITLE "17:cjc020_6341"
    INDEX 01 00:24:63
  TRACK 31 AUDIO
    TITLE "0:"
    INDEX 01 00:26:03
  TRACK 32 AUDIO
    TITLE "16:cjc020_6342"
    INDEX 01 00:26:11
  TRACK 33 AUDIO
    TITLE "0:"
    INDEX 01 00:27:26
  TRACK 34 AUDIO
    TITLE "17:cjc020_6343"
    INDEX 01 00:28:17
  TRACK 35 AUDIO
    TITLE "0:"
    INDEX 01 00:29:19
  TRACK 36 AUDIO
    TITLE "16:cjc020_6344"
    INDEX 01 00:29:27
  TRACK 37 AUDIO
    TITLE "0:"
    INDEX 01 00:30:40
  TRACK 38 AUDIO
    TITLE "17:cjc020_6345"
    INDEX 01 00:31:26
  TRACK 39 AUDIO
    TITLE "0:"
    INDEX 01 00:32:29
  TRACK 40 AUDIO
    TITLE "16:cjc020_6346"
    INDEX 01 00:32:37
  TRACK 41 AUDIO
    TITLE "0:"
    INDEX 01 00:33:48
  TRACK 42 AUDIO
    TITLE "17:cjc020_6347"
    INDEX 01 00:34:32
  TRACK 43 AUDIO
    TITLE "0:"
    INDEX 01 00:35:37
  TRACK 44 AUDIO
    TITLE "16:cjc020_6348"
    INDEX 01 00:35:45
  TRACK 45 AUDIO
    TITLE "0:"
    INDEX 01 00:36:48
  TRACK 46 AUDIO
    TITLE "17:cjc020_6349"
    INDEX 01 00:37:30
  TRACK 47 AUDIO
    TITLE "0:"
    INDEX 01 00:38:47
  TRACK 48 AUDIO
    TITLE "16:cjc020_6350"
    INDEX 01 00:38:49
  TRACK 49 AUDIO
    TITLE "0:"
    INDEX 01 00:39:72
  TRACK 50 AUDIO
    TITLE "17:cjc020_6351"
    INDEX 01 00:40:56
  TRACK 51 AUDIO
    TITLE "0:"
    INDEX 01 00:42:57
  TRACK 52 AUDIO
    TITLE "16:cjc020_6352"
    INDEX 01 00:42:66
  TRACK 53 AUDIO
    TITLE "0:"
    INDEX 01 00:43:74
  TRACK 54 AUDIO
    TITLE "17:cjc020_6353"
    INDEX 01 00:44:58
  TRACK 55 AUDIO
    TITLE "0:"
    INDEX 01 00:45:73
  TRACK 56 AUDIO
    TITLE "16:cjc020_6354"
    INDEX 01 00:46:06
  TRACK 57 AUDIO
    TITLE "0:"
    INDEX 01 00:47:03
  TRACK 58 AUDIO
    TITLE "17:cjc020_6355"
    INDEX 01 00:47:66
  TRACK 59 AUDIO
    TITLE "0:"
    INDEX 01 00:49:06
  TRACK 60 AUDIO
    TITLE "16:cjc020_6356"
    INDEX 01 00:49:14
  TRACK 61 AUDIO
    TITLE "0:"
    INDEX 01 00:50:15
  TRACK 62 AUDIO
    TITLE "17:cjc020_6357"
    INDEX 01 00:50:74
  TRACK 63 AUDIO
    TITLE "0:"
    INDEX 01 00:52:20
  TRACK 64 AUDIO
    TITLE "16:cjc020_6358"
    INDEX 01 00:52:26
  TRACK 65 AUDIO
    TITLE "0:"
    INDEX 01 00:53:49
  TRACK 66 AUDIO
    TITLE "17:cjc020_6359"
    INDEX 01 00:54:34
  TRACK 67 AUDIO
    TITLE "0:"
    INDEX 01 00:55:55
  TRACK 68 AUDIO
    TITLE "16:cjc020_6360"
    INDEX 01 00:55:59
  TRACK 69 AUDIO
    TITLE "0:"
    INDEX 01 00:56:63
  TRACK 70 AUDIO
    TITLE "17:cjc020_6361"
    INDEX 01 00:57:46
  TRACK 71 AUDIO
    TITLE "0:"
    INDEX 01 00:59:69
  TRACK 72 AUDIO
    TITLE "16:cjc020_6362"
    INDEX 01 01:00:00
  TRACK 73 AUDIO
    TITLE "0:"
    INDEX 01 01:01:29
  TRACK 74 AUDIO
    TITLE "17:cjc020_6363"
    INDEX 01 01:02:16
  TRACK 75 AUDIO
    TITLE "0:"
    INDEX 01 01:03:43
  TRACK 76 AUDIO
    TITLE "16:cjc020_6364"
    INDEX 01 01:03:51
  TRACK 77 AUDIO
    TITLE "0:"
    INDEX 01 01:04:72
  TRACK 78 AUDIO
    TITLE "17:cjc020_6365"
    INDEX 01 01:05:56
  TRACK 79 AUDIO
    TITLE "0:"
    INDEX 01 01:07:51
  TRACK 80 AUDIO
    TITLE "16:cjc020_6366"
    INDEX 01 01:07:59
  TRACK 81 AUDIO
    TITLE "0:"
    INDEX 01 01:09:01
  TRACK 82 AUDIO
    TITLE "17:cjc020_6367"
    INDEX 01 01:09:63
  TRACK 83 AUDIO
    TITLE "0:"
    INDEX 01 01:11:13
  TRACK 84 AUDIO
    TITLE "16:cjc020_6368"
    INDEX 01 01:11:19
  TRACK 85 AUDIO
    TITLE "0:"
    INDEX 01 01:12:09
